<?xml version="1.0" encoding="utf-8"?>
<!-- Generator: Adobe Illustrator 25.2.1, SVG Export Plug-In . SVG Version: 6.00 Build 0)  -->
<svg version="1.1" id="Layer_1" xmlns="http://www.w3.org/2000/svg" xmlns:xlink="http://www.w3.org/1999/xlink" x="0px" y="0px"
	 viewBox="0 0 512 102" style="enable-background:new 0 0 512 102;" xml:space="preserve">
<style type="text/css">
	.st0{fill:#FFFFFF;}
	.st1{fill:#FCD500;}
</style>
<g>
	<g>
		<path class="st0" d="M26.1,20.7c-6,0-10.8,1.9-14.5,5.8C7.9,30.4,6,35.5,6,41.8c0,6.8,2.1,12.2,6.2,16.1c4.1,4,9.7,6,16.7,6
			c4.7,0,9.5-0.9,14.4-2.6v-5.7c-4.2,1.8-7.9,2.7-11.2,2.7c-9.7,0-14.6-5.2-14.6-15.7h25.8v-0.8C43.3,27.7,37.5,20.7,26.1,20.7z
			 M32.3,39.2H17.7c0-10,2.6-15,7.9-15c2.5,0,4.2,1,5.2,3.1c1,2.1,1.5,5.6,1.5,10.6V39.2z"/>
		<path class="st0" d="M89.6,58.8c-0.7-0.3-1.5-1.2-2.6-2.5l-3.4-4.2l-8.2-11.4l7-8.5l4.2-4.7c1.4-1.6,2.7-2.3,4.1-2.3h1.6l0.7,0
			v-3.5H77.4v3.5h0.7c2.2,0,3.3,0.3,3.3,1c0,0.8-1.4,2.8-4.1,6.1l-4.2,5l-3.6-5c-0.3-0.5-0.9-1.4-1.7-2.7L66.4,27
			c-0.2-0.3-0.3-0.6-0.3-0.8c0-0.7,0.8-1.1,2.3-1.1l1.8,0h0.7v-3.5H47.7v3.5l0.7,0c1.7,0.1,2.8,0.3,3.4,0.7c0.6,0.3,1.5,1.2,2.6,2.6
			l3.2,3.9l7.8,10.8l-7.5,9l-3.4,3.7c-2,2.3-3.7,3.5-5.2,3.5l-1.8,0.1l-0.5,0V63h15.6v-3.5h-0.7l-1.2,0c-1.3,0-1.9-0.4-1.9-1.1
			c0-0.9,1.4-3,4.3-6.3l4.7-5.3l4,5.4l1.9,2.8c1.3,1.9,1.9,3,1.9,3.5c0,0.7-0.7,1.1-2.1,1.1l-1.9,0h-0.7V63h23v-3.5l-0.7,0
			C91.5,59.3,90.3,59.1,89.6,58.8z"/>
		<path class="st0" d="M126,20.7c-6.2,0-10.9,2.9-14,8.7v-7.8H94.8v3.5l0.7,0c2.4,0.2,3.8,0.4,4.3,0.8c0.5,0.4,0.8,1.3,0.8,2.9
			l0.2,3.7v34.4l-0.2,3.7c0,1.6-0.3,2.5-0.8,2.9c-0.5,0.4-2,0.6-4.3,0.8l-0.7,0v3.5h23.2v-3.5l-0.7,0c-2.4-0.2-3.8-0.4-4.3-0.8
			c-0.5-0.4-0.8-1.3-0.8-2.9l-0.2-3.7v-8.1c3.5,3.4,7.5,5.1,12.1,5.1c5.3,0,9.6-2.1,12.8-6.2c3.2-4.1,4.8-9.6,4.8-16.5
			c0-6.3-1.4-11.3-4.2-15C134.6,22.5,130.8,20.7,126,20.7z M120.4,58.6c-2.6,0-5.3-1.3-8.4-4V33.3c3-3.6,6.2-5.4,9.5-5.4
			c5.5,0,8.2,4.9,8.2,14.6C129.8,53.2,126.6,58.6,120.4,58.6z"/>
		<path class="st0" d="M166.6,20.7c-6,0-10.8,1.9-14.5,5.8c-3.7,3.9-5.6,9-5.6,15.3c0,6.8,2.1,12.2,6.2,16.1c4.1,4,9.7,6,16.7,6
			c4.7,0,9.5-0.9,14.4-2.6v-5.7c-4.2,1.8-7.9,2.7-11.2,2.7c-9.7,0-14.6-5.2-14.6-15.7h25.8v-0.8C183.8,27.7,178,20.7,166.6,20.7z
			 M172.8,39.2h-14.6c0-10,2.6-15,7.9-15c2.5,0,4.2,1,5.2,3.1c1,2.1,1.5,5.6,1.5,10.6V39.2z"/>
		<path class="st0" d="M205.8,29.4v-7.8h-17.2v3.5l0.7,0c2.4,0.2,3.8,0.4,4.3,0.8c0.5,0.4,0.8,1.3,0.8,2.9l0.2,3.7V52l-0.2,3.7
			c0,1.6-0.3,2.5-0.8,2.9c-0.5,0.4-2,0.6-4.3,0.8l-0.7,0V63h24.2v-3.5l-0.7,0l-2.6-0.2c-1.6-0.1-2.6-0.6-3.1-1.4
			c-0.5-0.9-0.7-2.8-0.7-5.7V33.4c2-3.5,4.6-5.2,7.8-5.2c1,0,1.6,0.2,1.8,0.5c0.2,0.3,0.4,1.3,0.5,3l0.2,1.8l0,0.7h5.1V21
			c-0.9-0.2-1.6-0.3-2.2-0.3C213.6,20.7,209.2,23.6,205.8,29.4z"/>
		<rect x="230.3" y="3.5" class="st0" width="11.1" height="11.1"/>
		<path class="st0" d="M242.5,58.7c-0.5-0.4-0.8-1.3-0.8-2.9l-0.2-3.7V21.6h-17.2v3.5l0.7,0c2.4,0.2,3.8,0.4,4.3,0.8
			c0.5,0.4,0.8,1.3,0.8,2.9l0.2,3.7V52l-0.2,3.7c0,1.6-0.3,2.5-0.8,2.9c-0.5,0.4-2,0.6-4.3,0.8l-0.7,0V63h23.2v-3.5l-0.7,0
			C244.4,59.3,243,59,242.5,58.7z"/>
		<path class="st0" d="M270.6,20.7c-6,0-10.8,1.9-14.5,5.8c-3.7,3.9-5.6,9-5.6,15.3c0,6.8,2.1,12.2,6.2,16.1c4.1,4,9.7,6,16.7,6
			c4.7,0,9.5-0.9,14.4-2.6v-5.7c-4.2,1.8-7.9,2.7-11.2,2.7c-9.7,0-14.6-5.2-14.6-15.7h25.8v-0.8C287.8,27.7,282.1,20.7,270.6,20.7z
			 M276.8,39.2h-14.6c0-10,2.6-15,7.9-15c2.5,0,4.2,1,5.2,3.1c1,2.1,1.5,5.6,1.5,10.6V39.2z"/>
		<path class="st0" d="M341.2,59.4c-2.4-0.2-3.9-0.4-4.4-0.8c-0.5-0.4-0.8-1.3-0.8-2.9l-0.2-3.7V33.7c0-4.1-1-7.3-3.1-9.6
			c-2.1-2.3-5-3.4-8.7-3.4c-6,0-10.7,2.9-14.2,8.7v-7.8h-17.2v3.5l0.7,0c2.4,0.2,3.8,0.4,4.3,0.8c0.5,0.4,0.8,1.3,0.8,2.9l0.2,3.7
			V52l-0.2,3.7c0,1.6-0.3,2.5-0.8,2.9c-0.5,0.4-2,0.6-4.3,0.8l-0.7,0V63h23.2v-3.5l-0.7,0c-2.4-0.2-3.8-0.4-4.3-0.8
			c-0.5-0.4-0.8-1.3-0.8-2.9l-0.2-3.7V33.6c3.2-4.1,6.5-6.1,9.9-6.1c2,0,3.3,0.5,4,1.6c0.7,1,1,3,1,6V52l-0.2,3.7
			c0,1.6-0.3,2.5-0.8,2.9c-0.5,0.4-2,0.6-4.4,0.8l-0.7,0V63h23.2v-3.5L341.2,59.4z"/>
	</g>
	<g>
		<path class="st1" d="M343.6,34.6c0-17.5,13.5-30.1,31.6-30.1c10,0,18.4,3.7,23.9,10.3l-8.6,8c-3.9-4.5-8.8-6.8-14.6-6.8
			c-10.9,0-18.6,7.6-18.6,18.6c0,11,7.7,18.6,18.6,18.6c5.8,0,10.7-2.3,14.6-6.9l8.6,8c-5.5,6.7-13.9,10.4-24,10.4
			C357,64.6,343.6,52.1,343.6,34.6z"/>
		<path class="st1" d="M451.7,52.9v10.8h-45V5.5h43.9v10.8H420v12.6h27v10.5h-27v13.5H451.7z"/>
		<path class="st1" d="M506,52.9v10.8h-45V5.5h43.9v10.8h-30.6v12.6h27v10.5h-27v13.5H506z"/>
		<path class="st1" d="M376.1,98.5c-4.7,0-8.1-3.4-8.1-8c0-4.6,3.4-8,8.1-8c2.8,0,5,1.1,6.2,3.2l0.4,0.6l-2.6,1.8l-0.4-0.6
			c-0.8-1.2-2-1.8-3.5-1.8c-2.8,0-4.7,1.9-4.7,4.8c0,2.9,1.9,4.8,4.7,4.8c1.1,0,2.6-0.3,3.5-1.8l0.4-0.6l2.6,1.8l-0.4,0.6
			C381.1,97.3,378.8,98.5,376.1,98.5z"/>
		<path class="st1" d="M391.7,98.5c-4.8,0-8.2-3.3-8.2-8c0-4.6,3.2-8,7.7-8c4.4,0,7.6,3.4,7.6,8c0,0.1,0,0.2,0,0.3
			c0,0.1,0,0.2,0,0.3v0.7H387c0.5,2.1,2.3,3.5,4.8,3.5c1.6,0,2.9-0.6,3.8-1.6l0.6-0.6l2,2.4l-0.4,0.5
			C396.4,97.6,394.2,98.5,391.7,98.5z M395.4,88.9c-0.5-2-2.1-3.3-4.2-3.3c-2.1,0-3.7,1.3-4.2,3.3H395.4z"/>
		<path class="st1" d="M408.6,98.5c-4.8,0-8.2-3.3-8.2-8c0-4.6,3.2-8,7.7-8c4.4,0,7.6,3.4,7.6,8c0,0.1,0,0.2,0,0.3
			c0,0.1,0,0.2,0,0.3v0.7h-11.8c0.5,2.1,2.3,3.5,4.8,3.5c1.6,0,2.9-0.6,3.8-1.6l0.6-0.6l2,2.4l-0.4,0.5
			C413.3,97.6,411.1,98.5,408.6,98.5z M412.3,88.9c-0.5-2-2.1-3.3-4.2-3.3c-2.1,0-3.7,1.3-4.2,3.3H412.3z"/>
		<path class="st1" d="M419.6,98.5c-1.2,0-2.2-1-2.2-2.2c0-1.2,1-2.2,2.2-2.2c1.2,0,2.2,1,2.2,2.2C421.8,97.5,420.8,98.5,419.6,98.5
			z"/>
		<path class="st1" d="M429.9,98.5c-3.1,0-4.9-1.8-4.9-4.9v-7.9h-2.5v-3.1h2.5v-3.1h3.4v3.1h4.3v3.1h-4.3v7.8c0,1.3,0.6,1.9,1.7,1.9
			c0.6,0,1.2-0.2,1.6-0.5l0.7-0.6l1.3,2.8l-0.4,0.4C432.6,98.1,431.3,98.5,429.9,98.5z"/>
		<path class="st1" d="M436.2,98.4V82.6h3.3V84c1.1-1,2.7-1.5,4.6-1.5h0.7v3.3h-0.7c-0.1,0-0.2,0-0.3,0c-0.1,0-0.1,0-0.1,0
			c-2.6,0-4.1,1.6-4.1,4.5v8H436.2z"/>
		<path class="st1" d="M452,98.5c-3.6,0-5.9-2-5.9-4.9c0-1.4,0.6-4.8,6.2-4.8h3.8v-0.1c0-2-1.1-3-3.3-3c-1.6,0-3.2,0.6-4.3,1.5
			l-0.7,0.6l-1.6-2.7l0.5-0.4c1.6-1.3,3.9-2.1,6.3-2.1c4.2,0,6.5,2.2,6.5,6.3v9.6h-3.3v-1.1C455.1,98.1,453.7,98.5,452,98.5z
			 M452.4,91.7c-2.9,0-2.9,1.3-2.9,1.8c0,1.8,2,1.9,2.9,1.9c1.8,0,3.1-0.8,3.8-2.3v-1.5H452.4z"/>
		<polygon class="st1" points="467.4,98.4 460.5,82.6 464.1,82.6 468.9,93.7 473.8,82.6 477.3,82.6 470.3,98.4 		"/>
		<path class="st1" d="M485.1,98.5c-4.8,0-8.2-3.3-8.2-8c0-4.6,3.2-8,7.7-8c4.4,0,7.6,3.4,7.6,8c0,0.1,0,0.2,0,0.3
			c0,0.1,0,0.2,0,0.3v0.7h-11.8c0.5,2.1,2.3,3.5,4.8,3.5c1.6,0,2.9-0.6,3.8-1.6l0.6-0.6l2,2.4l-0.4,0.5
			C489.7,97.6,487.6,98.5,485.1,98.5z M488.7,88.9c-0.5-2-2.1-3.3-4.2-3.3c-2.1,0-3.7,1.3-4.2,3.3H488.7z"/>
		<rect x="495.1" y="76.8" class="st1" width="3.4" height="21.6"/>
	</g>
</g>
</svg>
